<svg height='100px' width='100px'  fill="#000000" xmlns:x="http://ns.adobe.com/Extensibility/1.0/" xmlns:i="http://ns.adobe.com/AdobeIllustrator/10.0/" xmlns:graph="http://ns.adobe.com/Graphs/1.0/" xmlns="http://www.w3.org/2000/svg" xmlns:xlink="http://www.w3.org/1999/xlink" version="1.1" x="0px" y="0px" viewBox="0 0 64 64" enable-background="new 0 0 64 64" xml:space="preserve"><metadata><sfw xmlns="http://ns.adobe.com/SaveForWeb/1.0/"><slices></slices><sliceSourceBounds y="-8160" x="-8165" width="16389" height="16384" bottomLeftOrigin="true"></sliceSourceBounds></sfw></metadata><g><g><path d="M58,57h-5V7h5c0.553,0,1-0.448,1-1s-0.447-1-1-1H6C5.448,5,5,5.448,5,6s0.448,1,1,1h5v50H6c-0.552,0-1,0.447-1,1    s0.448,1,1,1h52c0.553,0,1-0.447,1-1S58.553,57,58,57z M51,57h-8V41h3c0.553,0,1-0.447,1-1V24c0-0.552-0.447-1-1-1h-3V7h8V57z     M33,7h8v16h-3c-0.553,0-1,0.448-1,1v16c0,0.553,0.447,1,1,1h3v16h-8V7z M31,57h-8V7h8V57z M39,39V25h6v14H39z M13,7h8v50h-8V7z"></path><path d="M44,30c0-1.104-0.896-2-2-2s-2,0.896-2,2c0,0.782,0.454,1.453,1.109,1.782L40,34h4l-1.109-2.218    C43.546,31.453,44,30.782,44,30z"></path></g></g></svg>